<?xml version="1.0" encoding="UTF-8" standalone="no"?>
<svg
   xmlns:dc="http://purl.org/dc/elements/1.1/"
   xmlns:cc="http://creativecommons.org/ns#"
   xmlns:rdf="http://www.w3.org/1999/02/22-rdf-syntax-ns#"
   xmlns:svg="http://www.w3.org/2000/svg"
   xmlns="http://www.w3.org/2000/svg"
   xmlns:sodipodi="http://sodipodi.sourceforge.net/DTD/sodipodi-0.dtd"
   xmlns:inkscape="http://www.inkscape.org/namespaces/inkscape"
   sodipodi:docname="logo.svg"
   inkscape:version="1.0beta2 (2b71d25, 2019-12-03)"
   inkscape:export-ydpi="96"
   inkscape:export-xdpi="96"
   inkscape:export-filename="/Users/solexious/Downloads/sticker.png"
   id="svg1004"
   version="1.1"
   viewBox="0 0 93.927086 59.531242"
   height="59.531242mm"
   width="93.927086mm">
  <defs
     id="defs998" />
  <sodipodi:namedview
     fit-margin-bottom="0"
     fit-margin-right="0"
     fit-margin-left="0"
     fit-margin-top="0"
     inkscape:document-rotation="0"
     inkscape:window-maximized="1"
     inkscape:window-y="23"
     inkscape:window-x="0"
     inkscape:window-height="1005"
     inkscape:window-width="1680"
     showgrid="false"
     inkscape:current-layer="layer1"
     inkscape:document-units="mm"
     inkscape:cy="338.59663"
     inkscape:cx="-228.29794"
     inkscape:zoom="0.70000001"
     inkscape:pageshadow="2"
     inkscape:pageopacity="0.0"
     borderopacity="1.0"
     bordercolor="#666666"
     pagecolor="#ffffff"
     id="base">
    <inkscape:grid
       originy="-237.30663"
       originx="-222.17591"
       id="grid6116"
       type="xygrid" />
  </sodipodi:namedview>
  <metadata
     id="metadata1001">
    <rdf:RDF>
      <cc:Work
         rdf:about="">
        <dc:format>image/svg+xml</dc:format>
        <dc:type
           rdf:resource="http://purl.org/dc/dcmitype/StillImage" />
        <dc:title></dc:title>
      </cc:Work>
    </rdf:RDF>
  </metadata>
  <g
     transform="translate(-115.09376,-78.71875)"
     id="layer1"
     inkscape:groupmode="layer"
     inkscape:label="Layer 1">
    <rect
       y="78.71875"
       x="115.09376"
       height="59.531242"
       width="93.927086"
       id="rect6182"
       style="fill:#000000;fill-opacity:1;stroke:none;stroke-width:3.40048;stroke-linecap:round;stroke-linejoin:round;stroke-miterlimit:4;stroke-dasharray:none;stroke-opacity:1" />
    <g
       id="text1748-2-4"
       style="font-style:normal;font-variant:normal;font-weight:normal;font-stretch:normal;font-size:4.23333px;line-height:1.25;font-family:'Eurostile Cond';-inkscape-font-specification:'Eurostile Cond';letter-spacing:0px;word-spacing:0px;fill:#ffffff;fill-opacity:1;stroke:none;stroke-width:0.264583"
       aria-label="Polybius Biotech">
      <path
         id="path1766"
         style="font-style:normal;font-variant:normal;font-weight:bold;font-stretch:normal;font-size:12.7px;font-family:Eurostile;-inkscape-font-specification:'Eurostile, Bold';font-variant-ligatures:normal;font-variant-caps:normal;font-variant-numeric:normal;font-feature-settings:normal;text-align:start;writing-mode:lr-tb;text-anchor:start;fill:#ffffff;fill-opacity:1;stroke-width:0.264583"
         d="m 117.63455,129.22182 h 1.6256 v -2.7305 h 1.8923 c 1.5367,-0.0254 1.5367,-0.0254 1.8796,-0.1397 0.9779,-0.2921 1.3716,-1.0668 1.3716,-2.6416 0,-1.0287 -0.1016,-1.5748 -0.381,-2.0447 -0.3175,-0.5207 -0.9017,-0.8382 -1.651,-0.889 -0.3175,-0.0254 -0.4064,-0.0254 -1.3081,-0.0254 h -3.429 z m 1.6256,-4.1275 v -2.9972 h 1.9939 c 0.6858,0 0.8382,0.0254 1.0668,0.127 0.3302,0.1778 0.4318,0.5207 0.4318,1.4605 0,1.2192 -0.2286,1.4097 -1.6637,1.4097 z"
         inkscape:connector-curvature="0" />
      <path
         id="path1768"
         style="font-style:normal;font-variant:normal;font-weight:bold;font-stretch:normal;font-size:12.7px;font-family:Eurostile;-inkscape-font-specification:'Eurostile, Bold';font-variant-ligatures:normal;font-variant-caps:normal;font-variant-numeric:normal;font-feature-settings:normal;text-align:start;writing-mode:lr-tb;text-anchor:start;fill:#ffffff;fill-opacity:1;stroke-width:0.264583"
         d="m 128.02612,123.21472 c -1.2573,0 -1.7907,0.1143 -2.2098,0.4826 -0.4572,0.4064 -0.635,1.0414 -0.635,2.3368 0,1.4478 0.0889,1.9939 0.381,2.4638 0.3556,0.5842 1.0287,0.8001 2.4257,0.8001 2.3114,0 2.794,-0.5461 2.794,-3.1877 0,-1.3462 -0.1651,-1.9812 -0.6096,-2.4003 -0.3937,-0.3683 -0.9398,-0.4953 -2.1463,-0.4953 z m -0.0508,1.1176 c 1.1684,0 1.3462,0.2413 1.3462,1.8034 0,1.7907 -0.1651,2.0447 -1.3589,2.0447 -1.1557,0 -1.3208,-0.2413 -1.3208,-1.9812 0,-1.6256 0.1778,-1.8669 1.3335,-1.8669 z"
         inkscape:connector-curvature="0" />
      <path
         id="path1770"
         style="font-style:normal;font-variant:normal;font-weight:bold;font-stretch:normal;font-size:12.7px;font-family:Eurostile;-inkscape-font-specification:'Eurostile, Bold';font-variant-ligatures:normal;font-variant-caps:normal;font-variant-numeric:normal;font-feature-settings:normal;text-align:start;writing-mode:lr-tb;text-anchor:start;fill:#ffffff;fill-opacity:1;stroke-width:0.264583"
         d="m 133.40556,120.75092 h -1.43509 v 8.4709 h 1.43509 z"
         inkscape:connector-curvature="0" />
      <path
         id="path1772"
         style="font-style:normal;font-variant:normal;font-weight:bold;font-stretch:normal;font-size:12.7px;font-family:Eurostile;-inkscape-font-specification:'Eurostile, Bold';font-variant-ligatures:normal;font-variant-caps:normal;font-variant-numeric:normal;font-feature-settings:normal;text-align:start;writing-mode:lr-tb;text-anchor:start;fill:#ffffff;fill-opacity:1;stroke-width:0.264583"
         d="m 139.79902,123.29092 h -1.4859 l -0.5842,2.5146 c -0.1905,0.8763 -0.3048,1.3716 -0.3302,1.5113 -0.0762,0.3302 -0.1524,0.6731 -0.2159,1.0033 h -0.0381 c -0.1143,-0.4445 -0.2286,-0.8255 -0.3429,-1.2573 l -0.381,-1.2573 -0.7366,-2.5146 h -1.524 l 1.9431,5.9309 h 0.7239 c -0.0762,0.508 -0.2286,0.9652 -0.4191,1.2446 -0.127,0.2159 -0.3937,0.3302 -0.7747,0.3302 l -0.2667,-0.0127 v 1.0414 c 0.1905,0.0254 0.3048,0.0254 0.4953,0.0254 1.4351,0 1.9431,-0.4826 2.3749,-2.2606 z"
         inkscape:connector-curvature="0" />
      <path
         id="path1774"
         style="font-style:normal;font-variant:normal;font-weight:bold;font-stretch:normal;font-size:12.7px;font-family:Eurostile;-inkscape-font-specification:'Eurostile, Bold';font-variant-ligatures:normal;font-variant-caps:normal;font-variant-numeric:normal;font-feature-settings:normal;text-align:start;writing-mode:lr-tb;text-anchor:start;fill:#ffffff;fill-opacity:1;stroke-width:0.264583"
         d="m 140.45367,129.22182 h 1.4351 l -0.0635,-0.9398 h 0.0254 c 0.3302,0.7366 0.8128,1.016 1.8161,1.016 0.9017,0 1.4986,-0.2032 1.8288,-0.6477 0.3937,-0.508 0.508,-1.0287 0.508,-2.4003 0,-1.4605 -0.1397,-2.0955 -0.5842,-2.5273 -0.3302,-0.3302 -0.889,-0.508 -1.6383,-0.508 -1.0795,0 -1.6002,0.2667 -1.8669,0.9398 l -0.0254,-0.0127 v -3.3909 h -1.4351 z m 2.8321,-4.8641 c 1.0541,0 1.2573,0.3175 1.2573,1.8923 0,1.6129 -0.2032,1.9177 -1.2954,1.9177 -1.1557,0 -1.3335,-0.2921 -1.3335,-2.0955 0,-1.3081 0.3175,-1.7145 1.3716,-1.7145 z"
         inkscape:connector-curvature="0" />
      <path
         id="path1776"
         style="font-style:normal;font-variant:normal;font-weight:bold;font-stretch:normal;font-size:12.7px;font-family:Eurostile;-inkscape-font-specification:'Eurostile, Bold';font-variant-ligatures:normal;font-variant-caps:normal;font-variant-numeric:normal;font-feature-settings:normal;text-align:start;writing-mode:lr-tb;text-anchor:start;fill:#ffffff;fill-opacity:1;stroke-width:0.264583"
         d="m 148.61084,120.75092 h -1.4351 v 1.2192 h 1.4351 z m 0,2.54 h -1.4351 v 5.9309 h 1.4351 z"
         inkscape:connector-curvature="0" />
      <path
         id="path1778"
         style="font-style:normal;font-variant:normal;font-weight:bold;font-stretch:normal;font-size:12.7px;font-family:Eurostile;-inkscape-font-specification:'Eurostile, Bold';font-variant-ligatures:normal;font-variant-caps:normal;font-variant-numeric:normal;font-feature-settings:normal;text-align:start;writing-mode:lr-tb;text-anchor:start;fill:#ffffff;fill-opacity:1;stroke-width:0.264583"
         d="m 155.27397,123.29092 h -1.4351 v 3.2385 c 0,0.5715 -0.0254,0.8001 -0.127,1.016 -0.2032,0.4064 -0.5842,0.5969 -1.2319,0.5969 -0.5207,0 -0.8001,-0.1143 -0.9398,-0.381 -0.0762,-0.1397 -0.1143,-0.381 -0.1143,-0.8255 v -3.6449 h -1.4351 v 3.9878 c 0,1.397 0.6096,2.0193 1.9939,2.0193 1.0414,0 1.6129,-0.3302 1.905,-1.1049 l 0.0254,0.0127 -0.0762,1.016 h 1.4351 z"
         inkscape:connector-curvature="0" />
      <path
         id="path1780"
         style="font-style:normal;font-variant:normal;font-weight:bold;font-stretch:normal;font-size:12.7px;font-family:Eurostile;-inkscape-font-specification:'Eurostile, Bold';font-variant-ligatures:normal;font-variant-caps:normal;font-variant-numeric:normal;font-feature-settings:normal;text-align:start;writing-mode:lr-tb;text-anchor:start;fill:#ffffff;fill-opacity:1;stroke-width:0.264583"
         d="m 161.61623,124.91652 c 0,-1.3462 -0.5334,-1.7018 -2.5146,-1.7018 -2.1082,0 -2.667,0.3683 -2.667,1.7653 0,1.4732 0.5207,1.7653 3.1242,1.7907 0.6731,0.0127 0.8509,0.1651 0.8509,0.7366 0,0.635 -0.254,0.7874 -1.2954,0.7874 -1.0287,0 -1.2446,-0.1397 -1.2446,-0.762 v -0.1778 h -1.4732 c 0,0.5334 0.0127,0.6477 0.1016,0.9144 0.2286,0.762 0.9017,1.0287 2.54,1.0287 1.2319,0 1.8288,-0.127 2.2479,-0.4699 0.3556,-0.3048 0.5461,-0.7874 0.5461,-1.4351 0,-0.6477 -0.1778,-1.1176 -0.5334,-1.3843 -0.3175,-0.2413 -0.635,-0.3048 -1.9304,-0.3683 -0.9906,-0.0381 -1.0541,-0.0508 -1.1938,-0.0889 -0.2286,-0.0762 -0.3302,-0.2667 -0.3302,-0.635 0,-0.6096 0.1778,-0.7112 1.2065,-0.7112 1.0033,0 1.1049,0.0635 1.1684,0.7112 z"
         inkscape:connector-curvature="0" />
      <path
         id="path1782"
         style="font-style:normal;font-variant:normal;font-weight:bold;font-stretch:normal;font-size:12.7px;font-family:Eurostile;-inkscape-font-specification:'Eurostile, Bold';font-variant-ligatures:normal;font-variant-caps:normal;font-variant-numeric:normal;font-feature-settings:normal;text-align:start;writing-mode:lr-tb;text-anchor:start;fill:#ffffff;fill-opacity:1;stroke-width:0.264583"
         d="m 166.17732,129.22182 h 4.4069 c 1.8542,0 2.5019,-0.6096 2.5019,-2.3241 0,-1.3589 -0.3429,-1.8415 -1.4478,-2.0193 v -0.0381 c 0.9144,-0.2032 1.2446,-0.6985 1.2446,-1.8669 0,-1.0287 -0.254,-1.6383 -0.8128,-1.9558 -0.3556,-0.1905 -0.8128,-0.2667 -1.7145,-0.2667 h -4.1783 z m 1.6256,-4.9149 v -2.2098 h 2.2987 c 0.4572,0 0.635,0.0254 0.7874,0.0889 0.2667,0.1397 0.381,0.4064 0.381,0.9525 0,0.5842 -0.1016,0.8636 -0.3683,1.016 -0.2032,0.1143 -0.4445,0.1524 -1.1303,0.1524 z m 0,3.5687 v -2.3622 h 2.0574 c 0.7747,0 0.9779,0.0127 1.1684,0.1016 0.3302,0.1524 0.4445,0.4445 0.4445,1.1176 0,1.016 -0.2159,1.143 -1.905,1.143 z"
         inkscape:connector-curvature="0" />
      <path
         id="path1784"
         style="font-style:normal;font-variant:normal;font-weight:bold;font-stretch:normal;font-size:12.7px;font-family:Eurostile;-inkscape-font-specification:'Eurostile, Bold';font-variant-ligatures:normal;font-variant-caps:normal;font-variant-numeric:normal;font-feature-settings:normal;text-align:start;writing-mode:lr-tb;text-anchor:start;fill:#ffffff;fill-opacity:1;stroke-width:0.264583"
         d="m 175.64795,120.75092 h -1.4351 v 1.2192 h 1.4351 z m 0,2.54 h -1.4351 v 5.9309 h 1.4351 z"
         inkscape:connector-curvature="0" />
      <path
         id="path1786"
         style="font-style:normal;font-variant:normal;font-weight:bold;font-stretch:normal;font-size:12.7px;font-family:Eurostile;-inkscape-font-specification:'Eurostile, Bold';font-variant-ligatures:normal;font-variant-caps:normal;font-variant-numeric:normal;font-feature-settings:normal;text-align:start;writing-mode:lr-tb;text-anchor:start;fill:#ffffff;fill-opacity:1;stroke-width:0.264583"
         d="m 179.66948,123.21472 c -1.2573,0 -1.7907,0.1143 -2.2098,0.4826 -0.4572,0.4064 -0.635,1.0414 -0.635,2.3368 0,1.4478 0.0889,1.9939 0.381,2.4638 0.3556,0.5842 1.0287,0.8001 2.4257,0.8001 2.3114,0 2.794,-0.5461 2.794,-3.1877 0,-1.3462 -0.1651,-1.9812 -0.6096,-2.4003 -0.3937,-0.3683 -0.9398,-0.4953 -2.1463,-0.4953 z m -0.0508,1.1176 c 1.1684,0 1.3462,0.2413 1.3462,1.8034 0,1.7907 -0.1651,2.0447 -1.3589,2.0447 -1.1557,0 -1.3208,-0.2413 -1.3208,-1.9812 0,-1.6256 0.1778,-1.8669 1.3335,-1.8669 z"
         inkscape:connector-curvature="0" />
      <path
         id="path1788"
         style="font-style:normal;font-variant:normal;font-weight:bold;font-stretch:normal;font-size:12.7px;font-family:Eurostile;-inkscape-font-specification:'Eurostile, Bold';font-variant-ligatures:normal;font-variant-caps:normal;font-variant-numeric:normal;font-feature-settings:normal;text-align:start;writing-mode:lr-tb;text-anchor:start;fill:#ffffff;fill-opacity:1;stroke-width:0.264583"
         d="m 187.57324,123.29092 h -2.2606 v -1.3208 h -1.4351 v 1.3208 h -0.7747 v 1.0795 h 0.7747 v 3.175 c 0,0.5715 0.0254,0.7747 0.1524,1.016 0.2667,0.5207 0.762,0.7366 1.7526,0.7366 0.9144,0 1.4097,-0.1651 1.7145,-0.5588 0.2413,-0.3302 0.3175,-0.635 0.3175,-1.4605 v -0.3429 h -1.2065 c 0.0127,0.127 0.0127,0.1905 0.0127,0.2413 0,0.8128 -0.1397,1.016 -0.6985,1.016 -0.4953,0 -0.6096,-0.1651 -0.6096,-0.8509 v -2.9718 h 2.2606 z"
         inkscape:connector-curvature="0" />
      <path
         id="path1790"
         style="font-style:normal;font-variant:normal;font-weight:bold;font-stretch:normal;font-size:12.7px;font-family:Eurostile;-inkscape-font-specification:'Eurostile, Bold';font-variant-ligatures:normal;font-variant-caps:normal;font-variant-numeric:normal;font-feature-settings:normal;text-align:start;writing-mode:lr-tb;text-anchor:start;fill:#ffffff;fill-opacity:1;stroke-width:0.264583"
         d="m 192.6207,127.32952 c -0.0127,0.762 -0.2032,0.9017 -1.2446,0.9017 -1.0922,0 -1.3462,-0.2794 -1.3462,-1.4859 v -0.2286 h 4.0132 c 0,-1.3081 -0.0254,-1.6002 -0.1524,-2.0193 -0.3048,-0.9398 -0.9652,-1.2827 -2.5146,-1.2827 -1.1938,0 -1.8542,0.1905 -2.2733,0.6477 -0.381,0.4318 -0.5207,1.0668 -0.5207,2.3622 0,2.5146 0.5334,3.0734 2.9083,3.0734 1.9558,0 2.5527,-0.4572 2.5527,-1.9685 z m 0.0127,-1.7018 h -2.5908 c 0.0127,-0.5207 0.0254,-0.6858 0.1016,-0.8763 0.1524,-0.3683 0.4318,-0.4699 1.2065,-0.4699 1.0668,0 1.2573,0.1778 1.2827,1.1176 z"
         inkscape:connector-curvature="0" />
      <path
         id="path1792"
         style="font-style:normal;font-variant:normal;font-weight:bold;font-stretch:normal;font-size:12.7px;font-family:Eurostile;-inkscape-font-specification:'Eurostile, Bold';font-variant-ligatures:normal;font-variant-caps:normal;font-variant-numeric:normal;font-feature-settings:normal;text-align:start;writing-mode:lr-tb;text-anchor:start;fill:#ffffff;fill-opacity:1;stroke-width:0.264583"
         d="m 199.01912,126.96122 c 0,1.0541 -0.1524,1.2192 -1.1811,1.2192 -0.5588,0 -0.8763,-0.0635 -1.0287,-0.2159 -0.2286,-0.2286 -0.3175,-0.7112 -0.3175,-1.6764 0,-1.7272 0.1524,-1.9431 1.3081,-1.9431 0.9398,0 1.1557,0.1905 1.1557,1.0414 h 1.397 c 0,-1.7018 -0.5715,-2.1717 -2.6289,-2.1717 -1.1557,0 -1.8542,0.2286 -2.2352,0.7493 -0.3429,0.4572 -0.4572,1.0541 -0.4572,2.286 0,1.4605 0.1778,2.1082 0.6731,2.54 0.4318,0.3683 1.0287,0.508 2.1844,0.508 1.3462,0 1.905,-0.1778 2.2606,-0.7366 0.2032,-0.3048 0.2921,-0.7366 0.2921,-1.397 v -0.2032 z"
         inkscape:connector-curvature="0" />
      <path
         id="path1794"
         style="font-style:normal;font-variant:normal;font-weight:bold;font-stretch:normal;font-size:12.7px;font-family:Eurostile;-inkscape-font-specification:'Eurostile, Bold';font-variant-ligatures:normal;font-variant-caps:normal;font-variant-numeric:normal;font-feature-settings:normal;text-align:start;writing-mode:lr-tb;text-anchor:start;fill:#ffffff;fill-opacity:1;stroke-width:0.264583"
         d="m 202.88349,120.75092 h -1.4351 v 8.4709 h 1.4351 v -3.3655 c 0,-1.1049 0.3556,-1.4859 1.4351,-1.4859 0.4953,0 0.762,0.1016 0.9144,0.3683 0.1143,0.1778 0.127,0.2921 0.127,0.8382 v 3.6449 h 1.4351 v -4.0259 c 0,-1.4097 -0.5842,-1.9812 -2.0447,-1.9812 -1.1049,0 -1.5367,0.254 -1.8415,1.0541 h -0.0254 z"
         inkscape:connector-curvature="0" />
    </g>
    <g
       id="text1760-0-5"
       style="font-style:normal;font-variant:normal;font-weight:normal;font-stretch:normal;font-size:4.23333px;line-height:1.25;font-family:'Eurostile Cond';-inkscape-font-specification:'Eurostile Cond';letter-spacing:0px;word-spacing:0px;fill:#ffffff;fill-opacity:1;stroke:none;stroke-width:0.264583"
       aria-label="improving life">
      <path
         id="path1797"
         style="font-style:normal;font-variant:normal;font-weight:normal;font-stretch:normal;font-size:5.64444px;font-family:'Eurostile Extd';-inkscape-font-specification:'Eurostile Extd, Normal';font-variant-ligatures:normal;font-variant-caps:normal;font-variant-numeric:normal;font-feature-settings:normal;text-align:start;writing-mode:lr-tb;text-anchor:start;fill:#ffffff;fill-opacity:1;stroke-width:0.264583"
         d="m 164.11466,135.10248 h 0.40075 v -2.66982 h -0.40075 z m 0,-3.30765 h 0.40075 v -0.49106 h -0.40075 z"
         inkscape:connector-curvature="0" />
      <path
         id="path1799"
         style="font-style:normal;font-variant:normal;font-weight:normal;font-stretch:normal;font-size:5.64444px;font-family:'Eurostile Extd';-inkscape-font-specification:'Eurostile Extd, Normal';font-variant-ligatures:normal;font-variant-caps:normal;font-variant-numeric:normal;font-feature-settings:normal;text-align:start;writing-mode:lr-tb;text-anchor:start;fill:#ffffff;fill-opacity:1;stroke-width:0.264583"
         d="m 165.41552,135.10248 h 0.40076 v -1.56916 c 0,-0.57573 0.34431,-0.80151 1.2192,-0.80151 0.80151,0 0.99907,0.14111 0.99907,0.70556 v 1.66511 h 0.40075 v -1.56916 c 0,-0.57009 0.34996,-0.80151 1.2192,-0.80151 0.80151,0 0.99907,0.14111 0.99907,0.70556 v 1.66511 h 0.40075 v -1.68205 c 0,-0.80151 -0.28786,-1.02729 -1.29257,-1.02729 -0.95391,0 -1.27565,0.12418 -1.45063,0.56445 -0.13546,-0.42898 -0.42333,-0.56445 -1.17404,-0.56445 -0.89182,0 -1.15711,0.11289 -1.3208,0.56445 v -0.52493 h -0.40076 z"
         inkscape:connector-curvature="0" />
      <path
         id="path1801"
         style="font-style:normal;font-variant:normal;font-weight:normal;font-stretch:normal;font-size:5.64444px;font-family:'Eurostile Extd';-inkscape-font-specification:'Eurostile Extd, Normal';font-variant-ligatures:normal;font-variant-caps:normal;font-variant-numeric:normal;font-feature-settings:normal;text-align:start;writing-mode:lr-tb;text-anchor:start;fill:#ffffff;fill-opacity:1;stroke-width:0.264583"
         d="m 171.96396,132.43266 v 3.79871 h 0.40076 v -1.524 c 0.16933,0.33302 0.47413,0.43462 1.33773,0.43462 0.79022,0 1.16276,-0.0734 1.38289,-0.26529 0.23142,-0.2032 0.32738,-0.53058 0.32738,-1.10631 0,-0.58138 -0.096,-0.90876 -0.32738,-1.11196 -0.22013,-0.19191 -0.59267,-0.26529 -1.38289,-0.26529 -0.8636,0 -1.1684,0.1016 -1.33773,0.43463 v -0.39511 z m 1.71027,0.29915 c 0.66604,0 0.95391,0.0508 1.10631,0.19191 0.14676,0.13547 0.20884,0.39511 0.20884,0.84667 0,0.40075 -0.0508,0.65475 -0.16368,0.79587 -0.1524,0.18062 -0.41769,0.23706 -1.15712,0.23706 -1.14582,0 -1.30951,-0.12982 -1.30951,-1.04986 0,-0.38947 0.0564,-0.64347 0.16369,-0.78458 0.14676,-0.18062 0.41769,-0.23707 1.15147,-0.23707 z"
         inkscape:connector-curvature="0" />
      <path
         id="path1803"
         style="font-style:normal;font-variant:normal;font-weight:normal;font-stretch:normal;font-size:5.64444px;font-family:'Eurostile Extd';-inkscape-font-specification:'Eurostile Extd, Normal';font-variant-ligatures:normal;font-variant-caps:normal;font-variant-numeric:normal;font-feature-settings:normal;text-align:start;writing-mode:lr-tb;text-anchor:start;fill:#ffffff;fill-opacity:1;stroke-width:0.264583"
         d="m 176.24139,135.10248 h 0.40076 v -1.56916 c 0,-0.58138 0.3048,-0.80151 1.10631,-0.80151 0.73942,0 0.90311,0.12982 0.90311,0.70556 v 0.14111 h 0.40076 v -0.15805 c 0,-0.79586 -0.26529,-1.02729 -1.19098,-1.02729 -0.82974,0 -1.07245,0.11289 -1.2192,0.56445 v -0.52493 h -0.40076 z"
         inkscape:connector-curvature="0" />
      <path
         id="path1805"
         style="font-style:normal;font-variant:normal;font-weight:normal;font-stretch:normal;font-size:5.64444px;font-family:'Eurostile Extd';-inkscape-font-specification:'Eurostile Extd, Normal';font-variant-ligatures:normal;font-variant-caps:normal;font-variant-numeric:normal;font-feature-settings:normal;text-align:start;writing-mode:lr-tb;text-anchor:start;fill:#ffffff;fill-opacity:1;stroke-width:0.264583"
         d="m 181.39556,132.39314 c -0.8128,0 -1.18533,0.0677 -1.40546,0.26529 -0.23142,0.2032 -0.32738,0.53058 -0.32738,1.10631 0,0.58138 0.096,0.90876 0.32738,1.11196 0.22578,0.19756 0.59266,0.26529 1.40546,0.26529 0.81845,0 1.18534,-0.0677 1.41112,-0.26529 0.22577,-0.2032 0.32737,-0.53058 0.32737,-1.08938 0,-0.59831 -0.096,-0.92004 -0.32737,-1.12889 -0.22578,-0.19755 -0.59267,-0.26529 -1.41112,-0.26529 z m 0.0113,0.33867 c 0.6604,0 0.94263,0.0508 1.09503,0.19191 0.14675,0.14111 0.20884,0.39511 0.20884,0.85796 0,0.38946 -0.0564,0.64346 -0.16369,0.78458 -0.14675,0.18062 -0.41769,0.23706 -1.14582,0.23706 -0.67169,0 -0.95391,-0.0508 -1.10631,-0.19191 -0.14676,-0.13547 -0.20885,-0.39511 -0.20885,-0.84667 0,-0.40075 0.0508,-0.65475 0.16369,-0.79586 0.14676,-0.18062 0.41769,-0.23707 1.15711,-0.23707 z"
         inkscape:connector-curvature="0" />
      <path
         id="path1807"
         style="font-style:normal;font-variant:normal;font-weight:normal;font-stretch:normal;font-size:5.64444px;font-family:'Eurostile Extd';-inkscape-font-specification:'Eurostile Extd, Normal';font-variant-ligatures:normal;font-variant-caps:normal;font-variant-numeric:normal;font-feature-settings:normal;text-align:start;writing-mode:lr-tb;text-anchor:start;fill:#ffffff;fill-opacity:1;stroke-width:0.264583"
         d="m 183.44908,132.43266 1.53529,2.66982 h 0.58138 l 1.53529,-2.66982 h -0.45156 l -1.3716,2.39324 -1.3716,-2.39324 z"
         inkscape:connector-curvature="0" />
      <path
         id="path1809"
         style="font-style:normal;font-variant:normal;font-weight:normal;font-stretch:normal;font-size:5.64444px;font-family:'Eurostile Extd';-inkscape-font-specification:'Eurostile Extd, Normal';font-variant-ligatures:normal;font-variant-caps:normal;font-variant-numeric:normal;font-feature-settings:normal;text-align:start;writing-mode:lr-tb;text-anchor:start;fill:#ffffff;fill-opacity:1;stroke-width:0.264583"
         d="m 187.64052,135.10248 h 0.40076 v -2.66982 h -0.40076 z m 0,-3.30765 h 0.40076 v -0.49106 h -0.40076 z"
         inkscape:connector-curvature="0" />
      <path
         id="path1811"
         style="font-style:normal;font-variant:normal;font-weight:normal;font-stretch:normal;font-size:5.64444px;font-family:'Eurostile Extd';-inkscape-font-specification:'Eurostile Extd, Normal';font-variant-ligatures:normal;font-variant-caps:normal;font-variant-numeric:normal;font-feature-settings:normal;text-align:start;writing-mode:lr-tb;text-anchor:start;fill:#ffffff;fill-opacity:1;stroke-width:0.264583"
         d="m 188.94139,135.10248 h 0.40076 v -1.56916 c 0,-0.58138 0.3556,-0.79586 1.31515,-0.79586 0.89747,0 1.09503,0.12982 1.09503,0.70555 v 1.65947 h 0.40075 v -1.68205 c 0,-0.44591 -0.0847,-0.67733 -0.29915,-0.84102 -0.21449,-0.16369 -0.508,-0.22013 -1.08374,-0.22013 -0.97084,0 -1.25306,0.11853 -1.42804,0.60395 v -0.53057 h -0.40076 z"
         inkscape:connector-curvature="0" />
      <path
         id="path1813"
         style="font-style:normal;font-variant:normal;font-weight:normal;font-stretch:normal;font-size:5.64444px;font-family:'Eurostile Extd';-inkscape-font-specification:'Eurostile Extd, Normal';font-variant-ligatures:normal;font-variant-caps:normal;font-variant-numeric:normal;font-feature-settings:normal;text-align:start;writing-mode:lr-tb;text-anchor:start;fill:#ffffff;fill-opacity:1;stroke-width:0.264583"
         d="m 196.42884,132.43266 h -0.40076 v 0.39511 c -0.19755,-0.34431 -0.47413,-0.43463 -1.33209,-0.43463 -0.79022,0 -1.16275,0.0734 -1.38853,0.26529 -0.23142,0.2032 -0.32738,0.53058 -0.32738,1.11196 0,0.57573 0.096,0.90311 0.32738,1.10631 0.22578,0.19191 0.59831,0.26529 1.38289,0.26529 0.8636,0 1.14018,-0.0903 1.33773,-0.43462 -0.006,0.64911 -0.0226,0.79022 -0.1016,0.97649 -0.12418,0.27657 -0.34995,0.33866 -1.17969,0.33866 -0.73377,0 -0.95955,-0.0339 -1.12324,-0.17498 -0.10725,-0.096 -0.16933,-0.24271 -0.16933,-0.40075 v -0.0564 h -0.41205 v 0.0564 c 0,0.27658 0.11853,0.52493 0.32173,0.68298 0.23143,0.17497 0.57574,0.23142 1.36032,0.23142 0.79586,0 1.16275,-0.0734 1.38288,-0.26529 0.24836,-0.22013 0.32174,-0.508 0.32174,-1.25307 z m -1.7272,0.29915 c 0.69991,0 0.93133,0.0395 1.09502,0.19191 0.14676,0.14111 0.20884,0.38947 0.20884,0.85796 0,0.38946 -0.0564,0.64346 -0.16368,0.77893 -0.16369,0.19756 -0.38383,0.24271 -1.15147,0.24271 -0.71685,0 -0.93698,-0.0395 -1.10631,-0.19191 -0.14676,-0.14111 -0.20885,-0.38947 -0.20885,-0.84667 0,-0.40075 0.0508,-0.65475 0.16934,-0.79022 0.15804,-0.19755 0.37817,-0.24271 1.15711,-0.24271 z"
         inkscape:connector-curvature="0" />
      <path
         id="path1815"
         style="font-style:normal;font-variant:normal;font-weight:normal;font-stretch:normal;font-size:5.64444px;font-family:'Eurostile Extd';-inkscape-font-specification:'Eurostile Extd, Normal';font-variant-ligatures:normal;font-variant-caps:normal;font-variant-numeric:normal;font-feature-settings:normal;text-align:start;writing-mode:lr-tb;text-anchor:start;fill:#ffffff;fill-opacity:1;stroke-width:0.264583"
         d="m 198.742,135.10248 h 0.40075 v -3.79871 H 198.742 Z"
         inkscape:connector-curvature="0" />
      <path
         id="path1817"
         style="font-style:normal;font-variant:normal;font-weight:normal;font-stretch:normal;font-size:5.64444px;font-family:'Eurostile Extd';-inkscape-font-specification:'Eurostile Extd, Normal';font-variant-ligatures:normal;font-variant-caps:normal;font-variant-numeric:normal;font-feature-settings:normal;text-align:start;writing-mode:lr-tb;text-anchor:start;fill:#ffffff;fill-opacity:1;stroke-width:0.264583"
         d="m 200.04287,135.10248 h 0.40075 v -2.66982 h -0.40075 z m 0,-3.30765 h 0.40075 v -0.49106 h -0.40075 z"
         inkscape:connector-curvature="0" />
      <path
         id="path1819"
         style="font-style:normal;font-variant:normal;font-weight:normal;font-stretch:normal;font-size:5.64444px;font-family:'Eurostile Extd';-inkscape-font-specification:'Eurostile Extd, Normal';font-variant-ligatures:normal;font-variant-caps:normal;font-variant-numeric:normal;font-feature-settings:normal;text-align:start;writing-mode:lr-tb;text-anchor:start;fill:#ffffff;fill-opacity:1;stroke-width:0.264583"
         d="m 201.47356,135.10248 h 0.40075 v -2.33116 h 1.33209 v -0.33866 h -1.33209 v -0.22578 c 0,-0.25965 0.0621,-0.40076 0.20885,-0.49107 0.1524,-0.0847 0.31609,-0.10724 0.85231,-0.10724 h 0.27093 v -0.33867 h -0.3556 c -0.53057,0 -0.79586,0.0339 -0.98777,0.12418 -0.26529,0.12418 -0.38947,0.38946 -0.38947,0.82973 v 0.20885 h -0.58138 v 0.33866 h 0.58138 z"
         inkscape:connector-curvature="0" />
      <path
         id="path1821"
         style="font-style:normal;font-variant:normal;font-weight:normal;font-stretch:normal;font-size:5.64444px;font-family:'Eurostile Extd';-inkscape-font-specification:'Eurostile Extd, Normal';font-variant-ligatures:normal;font-variant-caps:normal;font-variant-numeric:normal;font-feature-settings:normal;text-align:start;writing-mode:lr-tb;text-anchor:start;fill:#ffffff;fill-opacity:1;stroke-width:0.264583"
         d="m 206.99956,133.84377 c 0.006,-0.57574 -0.0508,-0.84103 -0.20885,-1.05551 -0.21449,-0.29916 -0.58138,-0.39512 -1.47884,-0.39512 -0.76765,0 -1.14582,0.0734 -1.36596,0.26529 -0.23142,0.2032 -0.32738,0.53058 -0.32738,1.11196 0,0.57573 0.096,0.90311 0.32738,1.10631 0.22014,0.19191 0.59831,0.26529 1.3716,0.26529 0.84667,0 1.22485,-0.079 1.45062,-0.3048 0.14112,-0.13547 0.20885,-0.29351 0.22578,-0.53622 h -0.41204 c -0.0565,0.4064 -0.29351,0.50235 -1.24178,0.50235 -0.75071,0 -0.95391,-0.0395 -1.12889,-0.22578 -0.13547,-0.14675 -0.16933,-0.27657 -0.16933,-0.73377 z m -2.95769,-0.32738 c 0.006,-0.22578 0.0226,-0.32738 0.079,-0.43462 0.14676,-0.28223 0.37253,-0.34996 1.19098,-0.34996 0.8128,0 1.03293,0.0677 1.18533,0.34996 0.0565,0.11289 0.0734,0.22013 0.079,0.43462 z"
         inkscape:connector-curvature="0" />
    </g>
    <g
       id="text1523-3"
       style="font-style:normal;font-variant:normal;font-weight:normal;font-stretch:normal;font-size:4.23333px;line-height:1.25;font-family:'Eurostile Cond';-inkscape-font-specification:'Eurostile Cond';letter-spacing:0px;word-spacing:0px;fill:#000000;fill-opacity:1;stroke:none;stroke-width:0.264583"
       aria-label=" ポリュビオス　バイオテク　"
       transform="translate(26.458333,-15.875001)">
      <g
         id="text1523-36"
         style="font-style:normal;font-variant:normal;font-weight:normal;font-stretch:normal;font-size:4.23333px;line-height:1.25;font-family:'Eurostile Cond';-inkscape-font-specification:'Eurostile Cond';letter-spacing:0px;word-spacing:0px;fill:#000000;fill-opacity:1;stroke:none;stroke-width:0.264583"
         aria-label=" ポリュビオス　バイオテク　">
        <path
           id="path1952"
           style="font-style:normal;font-variant:normal;font-weight:normal;font-stretch:normal;font-size:2.82222px;font-family:'Eurostile Cond';-inkscape-font-specification:'Eurostile Cond, Normal';font-variant-ligatures:normal;font-variant-caps:normal;font-variant-numeric:normal;font-feature-settings:normal;text-align:start;writing-mode:lr-tb;text-anchor:start;fill:#ffffff;fill-opacity:1;stroke-width:0.264583"
           d="m 149.77643,132.91665 q 0.0882,0 0.14331,-0.0551 0.0551,-0.0551 0.0551,-0.14331 0,-0.0882 -0.0551,-0.14332 -0.0551,-0.0551 -0.14331,-0.0551 -0.0882,0 -0.14332,0.0551 -0.0551,0.0551 -0.0551,0.14332 0,0.0882 0.0551,0.14331 0.0551,0.0551 0.14332,0.0551 z m 0,0.11025 q -0.1323,0 -0.22049,-0.0882 -0.0882,-0.0882 -0.0882,-0.22048 0,-0.13229 0.0882,-0.22049 0.0882,-0.0882 0.22049,-0.0882 0.13229,0 0.22048,0.0882 0.0882,0.0882 0.0882,0.22049 0,0.13229 -0.0882,0.22048 -0.0882,0.0882 -0.22048,0.0882 z m -0.37483,0.61736 q 0.39688,0.41892 0.59531,0.7717 l -0.24253,0.16536 q -0.23151,-0.40789 -0.56224,-0.76067 z m -0.52917,-0.47405 h 1.01424 v 0.24254 h -1.01424 v 1.53238 h -0.25356 v -1.53238 h -0.99218 v -0.24254 h 0.99218 v -0.61736 h 0.23151 q 0.12127,0.0221 0.0221,0.0882 z m -0.58428,0.60634 q 0.0661,0.0551 -0.0441,0.0772 -0.16537,0.3638 -0.41893,0.76068 l -0.24253,-0.13229 q 0.27561,-0.39688 0.46302,-0.83785 z"
           inkscape:connector-curvature="0" />
        <path
           id="path1954"
           style="font-style:normal;font-variant:normal;font-weight:normal;font-stretch:normal;font-size:2.82222px;font-family:'Eurostile Cond';-inkscape-font-specification:'Eurostile Cond, Normal';font-variant-ligatures:normal;font-variant-caps:normal;font-variant-numeric:normal;font-feature-settings:normal;text-align:start;writing-mode:lr-tb;text-anchor:start;fill:#ffffff;fill-opacity:1;stroke-width:0.264583"
           d="m 152.26792,133.7986 q 0,0.82682 -0.7717,1.19062 l -0.22049,-0.18741 q 0.72761,-0.33073 0.73863,-1.01424 v -1.10243 h 0.23151 q 0.11024,0.0221 0.0221,0.0882 z m -1.1355,0.24253 h -0.25356 v -1.24574 h 0.24253 q 0.11024,0.011 0.011,0.0882 z"
           inkscape:connector-curvature="0" />
        <path
           id="path1956"
           style="font-style:normal;font-variant:normal;font-weight:normal;font-stretch:normal;font-size:2.82222px;font-family:'Eurostile Cond';-inkscape-font-specification:'Eurostile Cond, Normal';font-variant-ligatures:normal;font-variant-caps:normal;font-variant-numeric:normal;font-feature-settings:normal;text-align:start;writing-mode:lr-tb;text-anchor:start;fill:#ffffff;fill-opacity:1;stroke-width:0.264583"
           d="m 155.39882,134.68054 h -1.98437 v -0.20946 h 1.19062 l 0.022,-0.82682 h -0.90399 v -0.20946 h 1.12448 l -0.0221,1.03628 h 0.57326 z"
           inkscape:connector-curvature="0" />
        <path
           id="path1958"
           style="font-style:normal;font-variant:normal;font-weight:normal;font-stretch:normal;font-size:2.82222px;font-family:'Eurostile Cond';-inkscape-font-specification:'Eurostile Cond, Normal';font-variant-ligatures:normal;font-variant-caps:normal;font-variant-numeric:normal;font-feature-settings:normal;text-align:start;writing-mode:lr-tb;text-anchor:start;fill:#ffffff;fill-opacity:1;stroke-width:0.264583"
           d="m 158.1108,133.40172 q 0.0551,0.0992 -0.0992,0.0331 -0.61736,0.16536 -1.30087,0.25356 v 0.71658 q 0,0.14331 0.14332,0.14331 h 1.2678 l -0.022,0.24254 H 156.81 q -0.35277,0 -0.35277,-0.28664 v -1.73081 h 0.22048 q 0.12127,0.0221 0.0331,0.0882 v 0.56224 q 0.74966,-0.0882 1.3119,-0.27561 z m -0.13229,-0.3638 q -0.17639,-0.22048 -0.34175,-0.38585 l 0.15434,-0.12127 q 0.15434,0.14332 0.34175,0.38585 z m 0.3197,-0.15434 q -0.19843,-0.23151 -0.34175,-0.37482 l 0.13229,-0.12127 q 0.16537,0.15434 0.35278,0.37482 z"
           inkscape:connector-curvature="0" />
        <path
           id="path1960"
           style="font-style:normal;font-variant:normal;font-weight:normal;font-stretch:normal;font-size:2.82222px;font-family:'Eurostile Cond';-inkscape-font-specification:'Eurostile Cond, Normal';font-variant-ligatures:normal;font-variant-caps:normal;font-variant-numeric:normal;font-feature-settings:normal;text-align:start;writing-mode:lr-tb;text-anchor:start;fill:#ffffff;fill-opacity:1;stroke-width:0.264583"
           d="m 158.80533,134.48211 q 0.70556,-0.452 1.10243,-1.08039 h -1.03628 v -0.24253 h 1.16857 v -0.60634 h 0.23152 q 0.0992,0.0221 0.022,0.0882 v 0.51814 h 0.92605 v 0.24253 h -0.92605 v 1.28985 q 0,0.26458 -0.25356,0.26458 h -0.30868 l -0.0441,-0.24253 h 0.22048 q 0.13229,-0.022 0.13229,-0.14332 v -0.92604 q -0.41892,0.61736 -1.01423,1.03628 z"
           inkscape:connector-curvature="0" />
        <path
           id="path1962"
           style="font-style:normal;font-variant:normal;font-weight:normal;font-stretch:normal;font-size:2.82222px;font-family:'Eurostile Cond';-inkscape-font-specification:'Eurostile Cond, Normal';font-variant-ligatures:normal;font-variant-caps:normal;font-variant-numeric:normal;font-feature-settings:normal;text-align:start;writing-mode:lr-tb;text-anchor:start;fill:#ffffff;fill-opacity:1;stroke-width:0.264583"
           d="m 163.04969,133.76553 q 0.47405,0.3638 0.93707,0.83784 l -0.22049,0.18742 q -0.46302,-0.48507 -0.89297,-0.8158 -0.42995,0.46302 -0.98116,0.82682 l -0.20946,-0.18741 q 1.16857,-0.76068 1.4993,-1.52136 l -1.20165,0.0772 -0.0331,-0.26458 1.27882,-0.0551 0.13229,-0.0331 0.17639,0.17638 q 0.0772,0.0772 -0.0441,0.0992 -0.20946,0.36381 -0.44097,0.67249 z"
           inkscape:connector-curvature="0" />
        <path
           id="path1964"
           style="font-style:normal;font-variant:normal;font-weight:normal;font-stretch:normal;font-size:2.82222px;font-family:'Eurostile Cond';-inkscape-font-specification:'Eurostile Cond, Normal';font-variant-ligatures:normal;font-variant-caps:normal;font-variant-numeric:normal;font-feature-settings:normal;text-align:start;writing-mode:lr-tb;text-anchor:start;fill:#ffffff;fill-opacity:1;stroke-width:0.264583"
           d="m 169.00281,133.04895 q 0.55122,0.69453 0.78273,1.46623 l -0.29766,0.0992 q -0.2756,-0.87092 -0.71658,-1.38906 z m -0.83784,0.25356 q 0.0882,0.0551 -0.0221,0.0992 -0.19844,0.69454 -0.63941,1.2678 l -0.25356,-0.16537 q 0.48507,-0.58428 0.65043,-1.32291 z m 1.32291,-0.8599 q 0.14332,0.12127 0.35278,0.34175 l -0.14331,0.13229 q -0.19844,-0.22048 -0.35278,-0.35277 z m -0.26458,0.16536 q 0.16537,0.15434 0.35278,0.37483 l -0.16537,0.12127 q -0.16536,-0.22049 -0.34175,-0.37483 z"
           inkscape:connector-curvature="0" />
        <path
           id="path1966"
           style="font-style:normal;font-variant:normal;font-weight:normal;font-stretch:normal;font-size:2.82222px;font-family:'Eurostile Cond';-inkscape-font-specification:'Eurostile Cond, Normal';font-variant-ligatures:normal;font-variant-caps:normal;font-variant-numeric:normal;font-feature-settings:normal;text-align:start;writing-mode:lr-tb;text-anchor:start;fill:#ffffff;fill-opacity:1;stroke-width:0.264583"
           d="m 170.20447,133.96396 q 1.15755,-0.48507 1.75286,-1.36701 l 0.20946,0.17639 q 0.0882,0.0661 -0.0772,0.0992 -0.20946,0.2756 -0.54019,0.56224 v 1.4993 h -0.25356 v -1.28984 q -0.38585,0.29765 -0.90399,0.54019 z"
           inkscape:connector-curvature="0" />
        <path
           id="path1968"
           style="font-style:normal;font-variant:normal;font-weight:normal;font-stretch:normal;font-size:2.82222px;font-family:'Eurostile Cond';-inkscape-font-specification:'Eurostile Cond, Normal';font-variant-ligatures:normal;font-variant-caps:normal;font-variant-numeric:normal;font-feature-settings:normal;text-align:start;writing-mode:lr-tb;text-anchor:start;fill:#ffffff;fill-opacity:1;stroke-width:0.264583"
           d="m 172.91644,134.48211 q 0.70556,-0.452 1.10243,-1.08039 h -1.03628 v -0.24253 h 1.16858 v -0.60634 h 0.23151 q 0.0992,0.0221 0.0221,0.0882 v 0.51814 h 0.92604 v 0.24253 h -0.92604 v 1.28985 q 0,0.26458 -0.25356,0.26458 h -0.30868 l -0.0441,-0.24253 h 0.22048 q 0.1323,-0.022 0.1323,-0.14332 v -0.92604 q -0.41893,0.61736 -1.01424,1.03628 z"
           inkscape:connector-curvature="0" />
        <path
           id="path1970"
           style="font-style:normal;font-variant:normal;font-weight:normal;font-stretch:normal;font-size:2.82222px;font-family:'Eurostile Cond';-inkscape-font-specification:'Eurostile Cond, Normal';font-variant-ligatures:normal;font-variant-caps:normal;font-variant-numeric:normal;font-feature-settings:normal;text-align:start;writing-mode:lr-tb;text-anchor:start;fill:#ffffff;fill-opacity:1;stroke-width:0.264583"
           d="m 176.95134,133.66631 h -1.10243 v -0.24254 h 2.25998 v 0.24254 h -0.90399 v 0.14331 q 0,0.69453 -0.4961,1.14653 l -0.22048,-0.16536 q 0.46302,-0.36381 0.46302,-0.98117 z m -0.70556,-0.67249 v -0.24253 h 1.46624 v 0.24253 z"
           inkscape:connector-curvature="0" />
        <path
           id="path1972"
           style="font-style:normal;font-variant:normal;font-weight:normal;font-stretch:normal;font-size:2.82222px;font-family:'Eurostile Cond';-inkscape-font-specification:'Eurostile Cond, Normal';font-variant-ligatures:normal;font-variant-caps:normal;font-variant-numeric:normal;font-feature-settings:normal;text-align:start;writing-mode:lr-tb;text-anchor:start;fill:#ffffff;fill-opacity:1;stroke-width:0.264583"
           d="m 180.61141,133.25841 q -0.20946,1.20165 -1.37804,1.71979 l -0.19844,-0.20946 q 1.08038,-0.44097 1.30087,-1.52136 h -0.88194 q -0.25356,0.41893 -0.52917,0.67249 l -0.22049,-0.14332 q 0.57327,-0.51814 0.73863,-1.21267 l 0.25356,0.0882 q 0.0661,0.0331 -0.0221,0.0661 -0.0441,0.14331 -0.12126,0.28663 h 0.79375 l 0.0992,-0.0551 0.19844,0.19843 q 0.0772,0.0772 -0.0331,0.11025 z"
           inkscape:connector-curvature="0" />
      </g>
    </g>
    <path
       style="fill:none;stroke:#ff7545;stroke-width:4;stroke-linecap:round;stroke-linejoin:round;stroke-miterlimit:4;stroke-dasharray:none;stroke-opacity:1"
       d="m 151.02638,83.36055 11.81816,6.69539 11.81816,-6.69539 v 13.67568 l -11.81816,6.83784 v 13.53323 l -11.81816,-6.83784 V 96.89378"
       id="path3038-5"
       inkscape:connector-curvature="0" />
  </g>
</svg>
